<svg width="306" height="203" viewBox="0 0 306 203" fill="none" xmlns="http://www.w3.org/2000/svg">
<g filter="url(#filter0_bdi_105_207)">
<g clip-path="url(#clip0_105_207)">
<rect x="31.8252" y="9.22852" width="181.195" height="181.195" rx="45.2988" fill="url(#paint0_linear_105_207)" fill-opacity="0.04" shape-rendering="crispEdges"/>
<g style="mix-blend-mode:plus-lighter" opacity="0.5" filter="url(#filter1_f_105_207)">
<rect x="69.5742" y="46.9775" width="105.697" height="105.697" rx="22.6494" fill="url(#paint1_radial_105_207)"/>
<rect x="69.5742" y="46.9775" width="105.697" height="105.697" rx="22.6494" fill="url(#paint2_radial_105_207)"/>
<rect x="69.5742" y="46.9775" width="105.697" height="105.697" rx="22.6494" fill="url(#paint3_radial_105_207)"/>
</g>
<rect x="69.5732" y="46.9756" width="105.697" height="105.697" rx="22.6494" fill="url(#paint4_radial_105_207)"/>
<rect x="69.5732" y="46.9756" width="105.697" height="105.697" rx="22.6494" fill="url(#paint5_radial_105_207)"/>
<rect x="69.5732" y="46.9756" width="105.697" height="105.697" rx="22.6494" fill="url(#paint6_radial_105_207)"/>
<path d="M148.847 79.0613C148.847 82.1885 146.312 84.7236 143.185 84.7236C140.058 84.7236 137.522 82.1885 137.522 79.0613C137.522 75.934 140.058 73.3989 143.185 73.3989C146.312 73.3989 148.847 75.934 148.847 79.0613Z" fill="white"/>
<path fill-rule="evenodd" clip-rule="evenodd" d="M122.423 118.698C132.847 118.698 141.297 110.247 141.297 99.8232C141.297 89.3991 132.847 80.9487 122.423 80.9487C111.999 80.9487 103.548 89.3991 103.548 99.8232C103.548 110.247 111.999 118.698 122.423 118.698ZM122.423 111.148C128.677 111.148 133.748 106.078 133.748 99.8232C133.748 93.5687 128.677 88.4985 122.423 88.4985C116.168 88.4985 111.098 93.5687 111.098 99.8232C111.098 106.078 116.168 111.148 122.423 111.148Z" fill="white"/>
<path fill-rule="evenodd" clip-rule="evenodd" d="M84.6738 98.3132C84.6738 85.6284 84.6738 79.286 87.1425 74.441C89.3139 70.1792 92.7789 66.7143 97.0406 64.5429C101.886 62.0742 108.228 62.0742 120.913 62.0742H123.933C136.618 62.0742 142.96 62.0742 147.805 64.5429C152.067 66.7143 155.532 70.1792 157.703 74.441C160.172 79.286 160.172 85.6284 160.172 98.3132V101.333C160.172 114.018 160.172 120.36 157.703 125.205C155.532 129.467 152.067 132.932 147.805 135.104C142.96 137.572 136.618 137.572 123.933 137.572H120.913C108.228 137.572 101.886 137.572 97.0406 135.104C92.7789 132.932 89.3139 129.467 87.1425 125.205C84.6738 120.36 84.6738 114.018 84.6738 101.333V98.3132ZM120.913 69.624H123.933C130.4 69.624 134.796 69.6299 138.194 69.9075C141.504 70.178 143.197 70.6681 144.377 71.2698C147.219 72.7174 149.529 75.0274 150.976 77.8685C151.578 79.0493 152.068 80.742 152.338 84.052C152.616 87.45 152.622 91.8462 152.622 98.3132V101.333C152.622 107.8 152.616 112.196 152.338 115.594C152.068 118.904 151.578 120.597 150.976 121.778C149.529 124.619 147.219 126.929 144.377 128.377C143.197 128.978 141.504 129.468 138.194 129.739C134.796 130.017 130.4 130.022 123.933 130.022H120.913C114.446 130.022 110.05 130.017 106.652 129.739C103.342 129.468 101.649 128.978 100.468 128.377C97.627 126.929 95.317 124.619 93.8694 121.778C93.2677 120.597 92.7776 118.904 92.5071 115.594C92.2295 112.196 92.2236 107.8 92.2236 101.333V98.3132C92.2236 91.8462 92.2295 87.45 92.5071 84.052C92.7776 80.742 93.2677 79.0493 93.8694 77.8685C95.317 75.0274 97.627 72.7174 100.468 71.2698C101.649 70.6681 103.342 70.178 106.652 69.9075C110.05 69.6299 114.446 69.624 120.913 69.624Z" fill="white"/>
<g filter="url(#filter2_f_105_207)">
<ellipse cx="124.31" cy="188.535" rx="43.4113" ry="24.5368" fill="#D4467E"/>
</g>
</g>
<rect x="31.8252" y="9.22852" width="181.195" height="181.195" rx="45.2988" stroke="url(#paint7_linear_105_207)" stroke-opacity="0.5" stroke-width="3.01992" shape-rendering="crispEdges"/>
</g>
<defs>
<filter id="filter0_bdi_105_207" x="-45.1825" y="-67.7792" width="350.31" height="335.211" filterUnits="userSpaceOnUse" color-interpolation-filters="sRGB">
<feFlood flood-opacity="0" result="BackgroundImageFix"/>
<feGaussianBlur in="BackgroundImageFix" stdDeviation="37.749"/>
<feComposite in2="SourceAlpha" operator="in" result="effect1_backgroundBlur_105_207"/>
<feColorMatrix in="SourceAlpha" type="matrix" values="0 0 0 0 0 0 0 0 0 0 0 0 0 0 0 0 0 0 127 0" result="hardAlpha"/>
<feOffset dx="30.1992" dy="15.0996"/>
<feGaussianBlur stdDeviation="30.1992"/>
<feComposite in2="hardAlpha" operator="out"/>
<feColorMatrix type="matrix" values="0 0 0 0 0 0 0 0 0 0 0 0 0 0 0 0 0 0 0.08 0"/>
<feBlend mode="normal" in2="effect1_backgroundBlur_105_207" result="effect2_dropShadow_105_207"/>
<feBlend mode="normal" in="SourceGraphic" in2="effect2_dropShadow_105_207" result="shape"/>
<feColorMatrix in="SourceAlpha" type="matrix" values="0 0 0 0 0 0 0 0 0 0 0 0 0 0 0 0 0 0 127 0" result="hardAlpha"/>
<feOffset/>
<feGaussianBlur stdDeviation="15.0996"/>
<feComposite in2="hardAlpha" operator="arithmetic" k2="-1" k3="1"/>
<feColorMatrix type="matrix" values="0 0 0 0 0.744549 0 0 0 0 0.0509804 0 0 0 0 0.988235 0 0 0 0.32 0"/>
<feBlend mode="normal" in2="shape" result="effect3_innerShadow_105_207"/>
</filter>
<filter id="filter1_f_105_207" x="16.7256" y="-5.87105" width="211.394" height="211.394" filterUnits="userSpaceOnUse" color-interpolation-filters="sRGB">
<feFlood flood-opacity="0" result="BackgroundImageFix"/>
<feBlend mode="normal" in="SourceGraphic" in2="BackgroundImageFix" result="shape"/>
<feGaussianBlur stdDeviation="22.6494" result="effect1_foregroundBlur_105_207"/>
</filter>
<filter id="filter2_f_105_207" x="12.9503" y="96.0499" width="222.719" height="184.97" filterUnits="userSpaceOnUse" color-interpolation-filters="sRGB">
<feFlood flood-opacity="0" result="BackgroundImageFix"/>
<feBlend mode="normal" in="SourceGraphic" in2="BackgroundImageFix" result="shape"/>
<feGaussianBlur stdDeviation="33.9741" result="effect1_foregroundBlur_105_207"/>
</filter>
<linearGradient id="paint0_linear_105_207" x1="31.8252" y1="9.22852" x2="213.02" y2="190.424" gradientUnits="userSpaceOnUse">
<stop stop-color="#F8FBFF"/>
<stop offset="1" stop-color="white" stop-opacity="0"/>
</linearGradient>
<radialGradient id="paint1_radial_105_207" cx="0" cy="0" r="1" gradientUnits="userSpaceOnUse" gradientTransform="translate(107.323 126.25) rotate(-55.3758) scale(96.3339)">
<stop stop-color="#B13589"/>
<stop offset="0.79309" stop-color="#C62F94"/>
<stop offset="1" stop-color="#8A3AC8"/>
</radialGradient>
<radialGradient id="paint2_radial_105_207" cx="0" cy="0" r="1" gradientUnits="userSpaceOnUse" gradientTransform="translate(103.548 156.45) rotate(-65.1363) scale(85.291)">
<stop stop-color="#E0E8B7"/>
<stop offset="0.444662" stop-color="#FB8A2E"/>
<stop offset="0.71474" stop-color="#E2425C"/>
<stop offset="1" stop-color="#E2425C" stop-opacity="0"/>
</radialGradient>
<radialGradient id="paint3_radial_105_207" cx="0" cy="0" r="1" gradientUnits="userSpaceOnUse" gradientTransform="translate(63.9119 50.7524) rotate(-8.1301) scale(146.809 31.4009)">
<stop offset="0.156701" stop-color="#406ADC"/>
<stop offset="0.467799" stop-color="#6A45BE"/>
<stop offset="1" stop-color="#6A45BE" stop-opacity="0"/>
</radialGradient>
<radialGradient id="paint4_radial_105_207" cx="0" cy="0" r="1" gradientUnits="userSpaceOnUse" gradientTransform="translate(107.322 126.248) rotate(-55.3758) scale(96.3339)">
<stop stop-color="#B13589"/>
<stop offset="0.79309" stop-color="#C62F94"/>
<stop offset="1" stop-color="#8A3AC8"/>
</radialGradient>
<radialGradient id="paint5_radial_105_207" cx="0" cy="0" r="1" gradientUnits="userSpaceOnUse" gradientTransform="translate(103.547 156.448) rotate(-65.1363) scale(85.291)">
<stop stop-color="#E0E8B7"/>
<stop offset="0.444662" stop-color="#FB8A2E"/>
<stop offset="0.71474" stop-color="#E2425C"/>
<stop offset="1" stop-color="#E2425C" stop-opacity="0"/>
</radialGradient>
<radialGradient id="paint6_radial_105_207" cx="0" cy="0" r="1" gradientUnits="userSpaceOnUse" gradientTransform="translate(63.9109 50.7505) rotate(-8.1301) scale(146.809 31.4009)">
<stop offset="0.156701" stop-color="#406ADC"/>
<stop offset="0.467799" stop-color="#6A45BE"/>
<stop offset="1" stop-color="#6A45BE" stop-opacity="0"/>
</radialGradient>
<linearGradient id="paint7_linear_105_207" x1="35.6001" y1="5.45362" x2="207.358" y2="190.424" gradientUnits="userSpaceOnUse">
<stop stop-color="#D8D8D8" stop-opacity="0.05"/>
<stop offset="1" stop-color="white" stop-opacity="0.4"/>
</linearGradient>
<clipPath id="clip0_105_207">
<rect x="31.8252" y="9.22852" width="181.195" height="181.195" rx="45.2988" fill="white"/>
</clipPath>
</defs>
</svg>
