<svg width="300" height="203" viewBox="0 0 300 203" fill="none" xmlns="http://www.w3.org/2000/svg">
<g filter="url(#filter0_bdi_109_335)">
<g clip-path="url(#clip0_109_335)">
<rect x="28" y="6" width="180" height="180" rx="45" fill="url(#paint0_linear_109_335)" fill-opacity="0.04" shape-rendering="crispEdges"/>
<g style="mix-blend-mode:plus-lighter" opacity="0.5" filter="url(#filter1_f_109_335)">
<rect x="65.5" y="43.5" width="105" height="105" rx="52.5" fill="#1275B1"/>
<path d="M105.32 72.3456C105.32 75.8501 102.282 78.6911 98.5348 78.6911C94.7877 78.6911 91.75 75.8501 91.75 72.3456C91.75 68.841 94.7877 66 98.5348 66C102.282 66 105.32 68.841 105.32 72.3456Z" fill="white"/>
<path d="M92.6778 83.3554H104.276V118.5H92.6778V83.3554Z" fill="white"/>
<path d="M122.948 83.3554H111.351V118.5H122.948C122.948 118.5 122.948 107.436 122.948 100.518C122.948 96.3661 124.366 92.1958 130.023 92.1958C136.416 92.1958 136.378 97.6295 136.348 101.839C136.309 107.342 136.402 112.957 136.402 118.5H148V99.9514C147.902 88.1077 144.816 82.6503 134.662 82.6503C128.633 82.6503 124.895 85.3877 122.948 87.8643V83.3554Z" fill="white"/>
</g>
<rect x="65.5" y="43.5" width="105" height="105" rx="52.5" fill="#1275B1"/>
<path d="M105.32 72.3456C105.32 75.8501 102.282 78.6911 98.5348 78.6911C94.7877 78.6911 91.75 75.8501 91.75 72.3456C91.75 68.841 94.7877 66 98.5348 66C102.282 66 105.32 68.841 105.32 72.3456Z" fill="white"/>
<path d="M92.6778 83.3554H104.276V118.5H92.6778V83.3554Z" fill="white"/>
<path d="M122.948 83.3554H111.351V118.5H122.948C122.948 118.5 122.948 107.436 122.948 100.518C122.948 96.3661 124.366 92.1958 130.023 92.1958C136.416 92.1958 136.378 97.6295 136.348 101.839C136.309 107.342 136.402 112.957 136.402 118.5H148V99.9514C147.902 88.1077 144.816 82.6503 134.662 82.6503C128.633 82.6503 124.895 85.3877 122.948 87.8643V83.3554Z" fill="white"/>
<g filter="url(#filter2_f_109_335)">
<ellipse cx="119.875" cy="184.126" rx="43.125" ry="24.375" fill="#1A75B0"/>
</g>
</g>
<rect x="28" y="6" width="180" height="180" rx="45" stroke="url(#paint1_linear_109_335)" stroke-opacity="0.5" stroke-width="3" shape-rendering="crispEdges"/>
</g>
<g style="mix-blend-mode:screen" filter="url(#filter3_f_109_335)">
<circle cx="91.75" cy="69.75" r="33.75" fill="white" fill-opacity="0.18"/>
</g>
<defs>
<filter id="filter0_bdi_109_335" x="-48.5" y="-70.5" width="348" height="333" filterUnits="userSpaceOnUse" color-interpolation-filters="sRGB">
<feFlood flood-opacity="0" result="BackgroundImageFix"/>
<feGaussianBlur in="BackgroundImageFix" stdDeviation="37.5"/>
<feComposite in2="SourceAlpha" operator="in" result="effect1_backgroundBlur_109_335"/>
<feColorMatrix in="SourceAlpha" type="matrix" values="0 0 0 0 0 0 0 0 0 0 0 0 0 0 0 0 0 0 127 0" result="hardAlpha"/>
<feOffset dx="30" dy="15"/>
<feGaussianBlur stdDeviation="30"/>
<feComposite in2="hardAlpha" operator="out"/>
<feColorMatrix type="matrix" values="0 0 0 0 0 0 0 0 0 0 0 0 0 0 0 0 0 0 0.08 0"/>
<feBlend mode="normal" in2="effect1_backgroundBlur_109_335" result="effect2_dropShadow_109_335"/>
<feBlend mode="normal" in="SourceGraphic" in2="effect2_dropShadow_109_335" result="shape"/>
<feColorMatrix in="SourceAlpha" type="matrix" values="0 0 0 0 0 0 0 0 0 0 0 0 0 0 0 0 0 0 127 0" result="hardAlpha"/>
<feOffset/>
<feGaussianBlur stdDeviation="15"/>
<feComposite in2="hardAlpha" operator="arithmetic" k2="-1" k3="1"/>
<feColorMatrix type="matrix" values="0 0 0 0 0.0509804 0 0 0 0 0.538353 0 0 0 0 0.988235 0 0 0 0.32 0"/>
<feBlend mode="normal" in2="shape" result="effect3_innerShadow_109_335"/>
</filter>
<filter id="filter1_f_109_335" x="13" y="-9" width="210" height="210" filterUnits="userSpaceOnUse" color-interpolation-filters="sRGB">
<feFlood flood-opacity="0" result="BackgroundImageFix"/>
<feBlend mode="normal" in="SourceGraphic" in2="BackgroundImageFix" result="shape"/>
<feGaussianBlur stdDeviation="22.5" result="effect1_foregroundBlur_109_335"/>
</filter>
<filter id="filter2_f_109_335" x="9.25" y="92.251" width="221.25" height="183.75" filterUnits="userSpaceOnUse" color-interpolation-filters="sRGB">
<feFlood flood-opacity="0" result="BackgroundImageFix"/>
<feBlend mode="normal" in="SourceGraphic" in2="BackgroundImageFix" result="shape"/>
<feGaussianBlur stdDeviation="33.75" result="effect1_foregroundBlur_109_335"/>
</filter>
<filter id="filter3_f_109_335" x="-17" y="-39" width="217.5" height="217.5" filterUnits="userSpaceOnUse" color-interpolation-filters="sRGB">
<feFlood flood-opacity="0" result="BackgroundImageFix"/>
<feBlend mode="normal" in="SourceGraphic" in2="BackgroundImageFix" result="shape"/>
<feGaussianBlur stdDeviation="37.5" result="effect1_foregroundBlur_109_335"/>
</filter>
<linearGradient id="paint0_linear_109_335" x1="28" y1="6" x2="208" y2="186" gradientUnits="userSpaceOnUse">
<stop stop-color="#F8FBFF"/>
<stop offset="1" stop-color="white" stop-opacity="0"/>
</linearGradient>
<linearGradient id="paint1_linear_109_335" x1="31.75" y1="2.25" x2="202.375" y2="186" gradientUnits="userSpaceOnUse">
<stop stop-color="#D8D8D8" stop-opacity="0.05"/>
<stop offset="1" stop-color="white" stop-opacity="0.4"/>
</linearGradient>
<clipPath id="clip0_109_335">
<rect x="28" y="6" width="180" height="180" rx="45" fill="white"/>
</clipPath>
</defs>
</svg>
