<svg width="300" height="203" viewBox="0 0 300 203" fill="none" xmlns="http://www.w3.org/2000/svg">
<g filter="url(#filter0_bdi_109_317)">
<g clip-path="url(#clip0_109_317)">
<rect x="28" y="19" width="180" height="180" rx="45" fill="url(#paint0_linear_109_317)" fill-opacity="0.04" shape-rendering="crispEdges"/>
<g style="mix-blend-mode:plus-lighter" opacity="0.5" filter="url(#filter1_f_109_317)">
<path d="M144.2 87.283C144.667 84.2624 141.795 81.8783 139.11 83.0575L85.6181 106.543C83.6921 107.389 83.833 110.306 85.8305 110.942L96.8618 114.455C98.9672 115.125 101.247 114.779 103.085 113.509L127.956 96.326C128.706 95.8079 129.524 96.8742 128.883 97.5349L110.98 115.992C109.244 117.783 109.588 120.817 111.677 122.127L131.721 134.696C133.969 136.106 136.861 134.69 137.282 131.973L144.2 87.283Z" fill="white"/>
</g>
<circle cx="118" cy="109" r="52.5" fill="url(#paint1_linear_109_317)"/>
<path d="M144.2 87.283C144.667 84.2624 141.795 81.8783 139.11 83.0575L85.6181 106.543C83.6921 107.389 83.833 110.306 85.8305 110.942L96.8618 114.455C98.9672 115.125 101.247 114.779 103.085 113.509L127.956 96.326C128.706 95.8079 129.524 96.8742 128.883 97.5349L110.98 115.992C109.244 117.783 109.588 120.817 111.677 122.127L131.721 134.696C133.969 136.106 136.861 134.69 137.282 131.973L144.2 87.283Z" fill="white"/>
<g filter="url(#filter2_f_109_317)">
<ellipse cx="119.875" cy="197.126" rx="43.125" ry="24.375" fill="#1893D1"/>
</g>
</g>
<rect x="28" y="19" width="180" height="180" rx="45" stroke="url(#paint2_linear_109_317)" stroke-opacity="0.5" stroke-width="3" shape-rendering="crispEdges"/>
</g>
<g style="mix-blend-mode:screen" filter="url(#filter3_f_109_317)">
<circle cx="91.75" cy="82.75" r="33.75" fill="white" fill-opacity="0.18"/>
</g>
<defs>
<filter id="filter0_bdi_109_317" x="-48.5" y="-57.5" width="348" height="333" filterUnits="userSpaceOnUse" color-interpolation-filters="sRGB">
<feFlood flood-opacity="0" result="BackgroundImageFix"/>
<feGaussianBlur in="BackgroundImageFix" stdDeviation="37.5"/>
<feComposite in2="SourceAlpha" operator="in" result="effect1_backgroundBlur_109_317"/>
<feColorMatrix in="SourceAlpha" type="matrix" values="0 0 0 0 0 0 0 0 0 0 0 0 0 0 0 0 0 0 127 0" result="hardAlpha"/>
<feOffset dx="30" dy="15"/>
<feGaussianBlur stdDeviation="30"/>
<feComposite in2="hardAlpha" operator="out"/>
<feColorMatrix type="matrix" values="0 0 0 0 0 0 0 0 0 0 0 0 0 0 0 0 0 0 0.08 0"/>
<feBlend mode="normal" in2="effect1_backgroundBlur_109_317" result="effect2_dropShadow_109_317"/>
<feBlend mode="normal" in="SourceGraphic" in2="effect2_dropShadow_109_317" result="shape"/>
<feColorMatrix in="SourceAlpha" type="matrix" values="0 0 0 0 0 0 0 0 0 0 0 0 0 0 0 0 0 0 127 0" result="hardAlpha"/>
<feOffset/>
<feGaussianBlur stdDeviation="15"/>
<feComposite in2="hardAlpha" operator="arithmetic" k2="-1" k3="1"/>
<feColorMatrix type="matrix" values="0 0 0 0 0.0509804 0 0 0 0 0.707059 0 0 0 0 0.988235 0 0 0 0.32 0"/>
<feBlend mode="normal" in2="shape" result="effect3_innerShadow_109_317"/>
</filter>
<filter id="filter1_f_109_317" x="13" y="4" width="210" height="210" filterUnits="userSpaceOnUse" color-interpolation-filters="sRGB">
<feFlood flood-opacity="0" result="BackgroundImageFix"/>
<feBlend mode="normal" in="SourceGraphic" in2="BackgroundImageFix" result="shape"/>
<feGaussianBlur stdDeviation="22.5" result="effect1_foregroundBlur_109_317"/>
</filter>
<filter id="filter2_f_109_317" x="9.25" y="105.251" width="221.25" height="183.75" filterUnits="userSpaceOnUse" color-interpolation-filters="sRGB">
<feFlood flood-opacity="0" result="BackgroundImageFix"/>
<feBlend mode="normal" in="SourceGraphic" in2="BackgroundImageFix" result="shape"/>
<feGaussianBlur stdDeviation="33.75" result="effect1_foregroundBlur_109_317"/>
</filter>
<filter id="filter3_f_109_317" x="-17" y="-26" width="217.5" height="217.5" filterUnits="userSpaceOnUse" color-interpolation-filters="sRGB">
<feFlood flood-opacity="0" result="BackgroundImageFix"/>
<feBlend mode="normal" in="SourceGraphic" in2="BackgroundImageFix" result="shape"/>
<feGaussianBlur stdDeviation="37.5" result="effect1_foregroundBlur_109_317"/>
</filter>
<linearGradient id="paint0_linear_109_317" x1="28" y1="19" x2="208" y2="199" gradientUnits="userSpaceOnUse">
<stop stop-color="#F8FBFF"/>
<stop offset="1" stop-color="white" stop-opacity="0"/>
</linearGradient>
<linearGradient id="paint1_linear_109_317" x1="118" y1="56.5" x2="118" y2="161.5" gradientUnits="userSpaceOnUse">
<stop stop-color="#37BBFE"/>
<stop offset="1" stop-color="#007DBB"/>
</linearGradient>
<linearGradient id="paint2_linear_109_317" x1="31.75" y1="15.25" x2="202.375" y2="199" gradientUnits="userSpaceOnUse">
<stop stop-color="#D8D8D8" stop-opacity="0.05"/>
<stop offset="1" stop-color="white" stop-opacity="0.4"/>
</linearGradient>
<clipPath id="clip0_109_317">
<rect x="28" y="19" width="180" height="180" rx="45" fill="white"/>
</clipPath>
</defs>
</svg>
