<svg width="24" height="24" viewBox="0 0 24 24" fill="none" xmlns="http://www.w3.org/2000/svg">
<path d="M4 7.2C4 5.69151 4 4.93726 4.46863 4.46863C4.93726 4 5.69151 4 7.2 4C8.70849 4 9.46274 4 9.93137 4.46863C10.4 4.93726 10.4 5.69151 10.4 7.2V16.8C10.4 18.3085 10.4 19.0627 9.93137 19.5314C9.46274 20 8.70849 20 7.2 20C5.69151 20 4.93726 20 4.46863 19.5314C4 19.0627 4 18.3085 4 16.8V7.2Z" stroke="white" stroke-width="1.5"/>
<path d="M13.5997 7.2C13.5997 5.69151 13.5997 4.93726 14.0684 4.46863C14.537 4 15.2912 4 16.7997 4C18.3082 4 19.0625 4 19.5311 4.46863C19.9997 4.93726 19.9997 5.69151 19.9997 7.2V16.8C19.9997 18.3085 19.9997 19.0627 19.5311 19.5314C19.0625 20 18.3082 20 16.7997 20C15.2912 20 14.537 20 14.0684 19.5314C13.5997 19.0627 13.5997 18.3085 13.5997 16.8V7.2Z" stroke="white" stroke-width="1.5"/>
</svg>
